<?xml version="1.0" encoding="UTF-8" standalone="no"?>
<!DOCTYPE svg PUBLIC "-//W3C//DTD SVG 1.1//EN"
 "http://www.w3.org/Graphics/SVG/1.1/DTD/svg11.dtd">
<!-- Generated by graphviz version 2.43.0 (0)
 -->
<!-- Title: %3 Pages: 1 -->
<svg width="1462pt" height="260pt"
 viewBox="0.00 0.00 1461.86 260.00" xmlns="http://www.w3.org/2000/svg" xmlns:xlink="http://www.w3.org/1999/xlink">
<g id="graph0" class="graph" transform="scale(1 1) rotate(0) translate(4 256)">
<title>%3</title>
<polygon fill="white" stroke="transparent" points="-4,4 -4,-256 1457.86,-256 1457.86,4 -4,4"/>
<!-- [root] aws_instance.us_east_frontend (expand) -->
<g id="node1" class="node">
<title>[root] aws_instance.us_east_frontend (expand)</title>
<polygon fill="none" stroke="black" points="465.88,-108 228.88,-108 228.88,-72 465.88,-72 465.88,-108"/>
<text text-anchor="middle" x="347.38" y="-86.3" font-family="Times,serif" font-size="14.00">aws_instance.us_east_frontend</text>
</g>
<!-- [root] provider[&quot;registry.terraform.io/hashicorp/aws&quot;] -->
<g id="node3" class="node">
<title>[root] provider[&quot;registry.terraform.io/hashicorp/aws&quot;]</title>
<polygon fill="none" stroke="black" points="325.38,-36 0.12,-18 325.38,0 650.65,-18 325.38,-36"/>
<text text-anchor="middle" x="325.38" y="-14.3" font-family="Times,serif" font-size="14.00">provider[&quot;registry.terraform.io/hashicorp/aws&quot;]</text>
</g>
<!-- [root] aws_instance.us_east_frontend (expand)&#45;&gt;[root] provider[&quot;registry.terraform.io/hashicorp/aws&quot;] -->
<g id="edge1" class="edge">
<title>[root] aws_instance.us_east_frontend (expand)&#45;&gt;[root] provider[&quot;registry.terraform.io/hashicorp/aws&quot;]</title>
<path fill="none" stroke="black" d="M341.94,-71.7C339.49,-63.9 336.54,-54.51 333.81,-45.83"/>
<polygon fill="black" stroke="black" points="337.09,-44.59 330.76,-36.1 330.42,-46.69 337.09,-44.59"/>
</g>
<!-- [root] aws_instance.us_west_frontend (expand) -->
<g id="node2" class="node">
<title>[root] aws_instance.us_west_frontend (expand)</title>
<polygon fill="none" stroke="black" points="1175.88,-108 934.88,-108 934.88,-72 1175.88,-72 1175.88,-108"/>
<text text-anchor="middle" x="1055.38" y="-86.3" font-family="Times,serif" font-size="14.00">aws_instance.us_west_frontend</text>
</g>
<!-- [root] provider[&quot;registry.terraform.io/hashicorp/aws&quot;].us&#45;west&#45;2 -->
<g id="node4" class="node">
<title>[root] provider[&quot;registry.terraform.io/hashicorp/aws&quot;].us&#45;west&#45;2</title>
<polygon fill="none" stroke="black" points="1061.38,-36 668.92,-18 1061.38,0 1453.84,-18 1061.38,-36"/>
<text text-anchor="middle" x="1061.38" y="-14.3" font-family="Times,serif" font-size="14.00">provider[&quot;registry.terraform.io/hashicorp/aws&quot;].us&#45;west&#45;2</text>
</g>
<!-- [root] aws_instance.us_west_frontend (expand)&#45;&gt;[root] provider[&quot;registry.terraform.io/hashicorp/aws&quot;].us&#45;west&#45;2 -->
<g id="edge2" class="edge">
<title>[root] aws_instance.us_west_frontend (expand)&#45;&gt;[root] provider[&quot;registry.terraform.io/hashicorp/aws&quot;].us&#45;west&#45;2</title>
<path fill="none" stroke="black" d="M1056.86,-71.7C1057.53,-63.98 1058.32,-54.71 1059.06,-46.11"/>
<polygon fill="black" stroke="black" points="1062.55,-46.37 1059.92,-36.1 1055.57,-45.77 1062.55,-46.37"/>
</g>
<!-- [root] provider[&quot;registry.terraform.io/hashicorp/aws&quot;] (close) -->
<g id="node5" class="node">
<title>[root] provider[&quot;registry.terraform.io/hashicorp/aws&quot;] (close)</title>
<ellipse fill="none" stroke="black" cx="390.38" cy="-162" rx="291.65" ry="18"/>
<text text-anchor="middle" x="390.38" y="-158.3" font-family="Times,serif" font-size="14.00">[root] provider[&quot;registry.terraform.io/hashicorp/aws&quot;] (close)</text>
</g>
<!-- [root] provider[&quot;registry.terraform.io/hashicorp/aws&quot;] (close)&#45;&gt;[root] aws_instance.us_east_frontend (expand) -->
<g id="edge3" class="edge">
<title>[root] provider[&quot;registry.terraform.io/hashicorp/aws&quot;] (close)&#45;&gt;[root] aws_instance.us_east_frontend (expand)</title>
<path fill="none" stroke="black" d="M379.75,-143.7C374.75,-135.56 368.69,-125.69 363.17,-116.7"/>
<polygon fill="black" stroke="black" points="366.11,-114.79 357.89,-108.1 360.14,-118.46 366.11,-114.79"/>
</g>
<!-- [root] provider[&quot;registry.terraform.io/hashicorp/aws&quot;].us&#45;west&#45;2 (close) -->
<g id="node6" class="node">
<title>[root] provider[&quot;registry.terraform.io/hashicorp/aws&quot;].us&#45;west&#45;2 (close)</title>
<ellipse fill="none" stroke="black" cx="1050.38" cy="-162" rx="339.04" ry="18"/>
<text text-anchor="middle" x="1050.38" y="-158.3" font-family="Times,serif" font-size="14.00">[root] provider[&quot;registry.terraform.io/hashicorp/aws&quot;].us&#45;west&#45;2 (close)</text>
</g>
<!-- [root] provider[&quot;registry.terraform.io/hashicorp/aws&quot;].us&#45;west&#45;2 (close)&#45;&gt;[root] aws_instance.us_west_frontend (expand) -->
<g id="edge4" class="edge">
<title>[root] provider[&quot;registry.terraform.io/hashicorp/aws&quot;].us&#45;west&#45;2 (close)&#45;&gt;[root] aws_instance.us_west_frontend (expand)</title>
<path fill="none" stroke="black" d="M1051.62,-143.7C1052.17,-135.98 1052.83,-126.71 1053.45,-118.11"/>
<polygon fill="black" stroke="black" points="1056.94,-118.33 1054.16,-108.1 1049.96,-117.83 1056.94,-118.33"/>
</g>
<!-- [root] root -->
<g id="node7" class="node">
<title>[root] root</title>
<ellipse fill="none" stroke="black" cx="714.38" cy="-234" rx="58.49" ry="18"/>
<text text-anchor="middle" x="714.38" y="-230.3" font-family="Times,serif" font-size="14.00">[root] root</text>
</g>
<!-- [root] root&#45;&gt;[root] provider[&quot;registry.terraform.io/hashicorp/aws&quot;] (close) -->
<g id="edge5" class="edge">
<title>[root] root&#45;&gt;[root] provider[&quot;registry.terraform.io/hashicorp/aws&quot;] (close)</title>
<path fill="none" stroke="black" d="M667.96,-222.97C618.15,-212.21 537.93,-194.88 476.51,-181.61"/>
<polygon fill="black" stroke="black" points="476.94,-178.12 466.43,-179.43 475.47,-184.96 476.94,-178.12"/>
</g>
<!-- [root] root&#45;&gt;[root] provider[&quot;registry.terraform.io/hashicorp/aws&quot;].us&#45;west&#45;2 (close) -->
<g id="edge6" class="edge">
<title>[root] root&#45;&gt;[root] provider[&quot;registry.terraform.io/hashicorp/aws&quot;].us&#45;west&#45;2 (close)</title>
<path fill="none" stroke="black" d="M761.45,-223.19C812.97,-212.46 896.76,-195 960.88,-181.65"/>
<polygon fill="black" stroke="black" points="961.91,-185.01 970.99,-179.54 960.49,-178.15 961.91,-185.01"/>
</g>
</g>
</svg>
