<?xml version="1.0" encoding="UTF-8" standalone="no"?>
<!DOCTYPE svg PUBLIC "-//W3C//DTD SVG 1.1//EN"
 "http://www.w3.org/Graphics/SVG/1.1/DTD/svg11.dtd">
<!-- Generated by graphviz version 2.43.0 (0)
 -->
<!-- Title: %3 Pages: 1 -->
<svg width="1375pt" height="332pt"
 viewBox="0.00 0.00 1374.86 332.00" xmlns="http://www.w3.org/2000/svg" xmlns:xlink="http://www.w3.org/1999/xlink">
<g id="graph0" class="graph" transform="scale(1 1) rotate(0) translate(4 328)">
<title>%3</title>
<polygon fill="white" stroke="transparent" points="-4,4 -4,-328 1370.86,-328 1370.86,4 -4,4"/>
<!-- [root] aws_instance.backend (expand) -->
<g id="node1" class="node">
<title>[root] aws_instance.backend (expand)</title>
<polygon fill="none" stroke="black" points="412.88,-108 237.88,-108 237.88,-72 412.88,-72 412.88,-108"/>
<text text-anchor="middle" x="325.38" y="-86.3" font-family="Times,serif" font-size="14.00">aws_instance.backend</text>
</g>
<!-- [root] provider[&quot;registry.terraform.io/hashicorp/aws&quot;] -->
<g id="node4" class="node">
<title>[root] provider[&quot;registry.terraform.io/hashicorp/aws&quot;]</title>
<polygon fill="none" stroke="black" points="325.38,-36 0.12,-18 325.38,0 650.65,-18 325.38,-36"/>
<text text-anchor="middle" x="325.38" y="-14.3" font-family="Times,serif" font-size="14.00">provider[&quot;registry.terraform.io/hashicorp/aws&quot;]</text>
</g>
<!-- [root] aws_instance.backend (expand)&#45;&gt;[root] provider[&quot;registry.terraform.io/hashicorp/aws&quot;] -->
<g id="edge1" class="edge">
<title>[root] aws_instance.backend (expand)&#45;&gt;[root] provider[&quot;registry.terraform.io/hashicorp/aws&quot;]</title>
<path fill="none" stroke="black" d="M325.38,-71.7C325.38,-63.98 325.38,-54.71 325.38,-46.11"/>
<polygon fill="black" stroke="black" points="328.88,-46.1 325.38,-36.1 321.88,-46.1 328.88,-46.1"/>
</g>
<!-- [root] aws_instance.frontend (expand) -->
<g id="node2" class="node">
<title>[root] aws_instance.frontend (expand)</title>
<polygon fill="none" stroke="black" points="413.88,-180 236.88,-180 236.88,-144 413.88,-144 413.88,-180"/>
<text text-anchor="middle" x="325.38" y="-158.3" font-family="Times,serif" font-size="14.00">aws_instance.frontend</text>
</g>
<!-- [root] aws_instance.frontend (expand)&#45;&gt;[root] aws_instance.backend (expand) -->
<g id="edge2" class="edge">
<title>[root] aws_instance.frontend (expand)&#45;&gt;[root] aws_instance.backend (expand)</title>
<path fill="none" stroke="black" d="M325.38,-143.7C325.38,-135.98 325.38,-126.71 325.38,-118.11"/>
<polygon fill="black" stroke="black" points="328.88,-118.1 325.38,-108.1 321.88,-118.1 328.88,-118.1"/>
</g>
<!-- [root] aws_instance.us_west_frontend (expand) -->
<g id="node3" class="node">
<title>[root] aws_instance.us_west_frontend (expand)</title>
<polygon fill="none" stroke="black" points="1094.88,-180 853.88,-180 853.88,-144 1094.88,-144 1094.88,-180"/>
<text text-anchor="middle" x="974.38" y="-158.3" font-family="Times,serif" font-size="14.00">aws_instance.us_west_frontend</text>
</g>
<!-- [root] provider[&quot;registry.terraform.io/hashicorp/aws&quot;].us&#45;west&#45;2 -->
<g id="node5" class="node">
<title>[root] provider[&quot;registry.terraform.io/hashicorp/aws&quot;].us&#45;west&#45;2</title>
<polygon fill="none" stroke="black" points="974.38,-108 581.92,-90 974.38,-72 1366.84,-90 974.38,-108"/>
<text text-anchor="middle" x="974.38" y="-86.3" font-family="Times,serif" font-size="14.00">provider[&quot;registry.terraform.io/hashicorp/aws&quot;].us&#45;west&#45;2</text>
</g>
<!-- [root] aws_instance.us_west_frontend (expand)&#45;&gt;[root] provider[&quot;registry.terraform.io/hashicorp/aws&quot;].us&#45;west&#45;2 -->
<g id="edge3" class="edge">
<title>[root] aws_instance.us_west_frontend (expand)&#45;&gt;[root] provider[&quot;registry.terraform.io/hashicorp/aws&quot;].us&#45;west&#45;2</title>
<path fill="none" stroke="black" d="M974.38,-143.7C974.38,-135.98 974.38,-126.71 974.38,-118.11"/>
<polygon fill="black" stroke="black" points="977.88,-118.1 974.38,-108.1 970.88,-118.1 977.88,-118.1"/>
</g>
<!-- [root] provider[&quot;registry.terraform.io/hashicorp/aws&quot;] (close) -->
<g id="node6" class="node">
<title>[root] provider[&quot;registry.terraform.io/hashicorp/aws&quot;] (close)</title>
<ellipse fill="none" stroke="black" cx="325.38" cy="-234" rx="291.65" ry="18"/>
<text text-anchor="middle" x="325.38" y="-230.3" font-family="Times,serif" font-size="14.00">[root] provider[&quot;registry.terraform.io/hashicorp/aws&quot;] (close)</text>
</g>
<!-- [root] provider[&quot;registry.terraform.io/hashicorp/aws&quot;] (close)&#45;&gt;[root] aws_instance.frontend (expand) -->
<g id="edge4" class="edge">
<title>[root] provider[&quot;registry.terraform.io/hashicorp/aws&quot;] (close)&#45;&gt;[root] aws_instance.frontend (expand)</title>
<path fill="none" stroke="black" d="M325.38,-215.7C325.38,-207.98 325.38,-198.71 325.38,-190.11"/>
<polygon fill="black" stroke="black" points="328.88,-190.1 325.38,-180.1 321.88,-190.1 328.88,-190.1"/>
</g>
<!-- [root] provider[&quot;registry.terraform.io/hashicorp/aws&quot;].us&#45;west&#45;2 (close) -->
<g id="node7" class="node">
<title>[root] provider[&quot;registry.terraform.io/hashicorp/aws&quot;].us&#45;west&#45;2 (close)</title>
<ellipse fill="none" stroke="black" cx="974.38" cy="-234" rx="339.04" ry="18"/>
<text text-anchor="middle" x="974.38" y="-230.3" font-family="Times,serif" font-size="14.00">[root] provider[&quot;registry.terraform.io/hashicorp/aws&quot;].us&#45;west&#45;2 (close)</text>
</g>
<!-- [root] provider[&quot;registry.terraform.io/hashicorp/aws&quot;].us&#45;west&#45;2 (close)&#45;&gt;[root] aws_instance.us_west_frontend (expand) -->
<g id="edge5" class="edge">
<title>[root] provider[&quot;registry.terraform.io/hashicorp/aws&quot;].us&#45;west&#45;2 (close)&#45;&gt;[root] aws_instance.us_west_frontend (expand)</title>
<path fill="none" stroke="black" d="M974.38,-215.7C974.38,-207.98 974.38,-198.71 974.38,-190.11"/>
<polygon fill="black" stroke="black" points="977.88,-190.1 974.38,-180.1 970.88,-190.1 977.88,-190.1"/>
</g>
<!-- [root] root -->
<g id="node8" class="node">
<title>[root] root</title>
<ellipse fill="none" stroke="black" cx="649.38" cy="-306" rx="58.49" ry="18"/>
<text text-anchor="middle" x="649.38" y="-302.3" font-family="Times,serif" font-size="14.00">[root] root</text>
</g>
<!-- [root] root&#45;&gt;[root] provider[&quot;registry.terraform.io/hashicorp/aws&quot;] (close) -->
<g id="edge6" class="edge">
<title>[root] root&#45;&gt;[root] provider[&quot;registry.terraform.io/hashicorp/aws&quot;] (close)</title>
<path fill="none" stroke="black" d="M602.96,-294.97C553.15,-284.21 472.93,-266.88 411.51,-253.61"/>
<polygon fill="black" stroke="black" points="411.94,-250.12 401.43,-251.43 410.47,-256.96 411.94,-250.12"/>
</g>
<!-- [root] root&#45;&gt;[root] provider[&quot;registry.terraform.io/hashicorp/aws&quot;].us&#45;west&#45;2 (close) -->
<g id="edge7" class="edge">
<title>[root] root&#45;&gt;[root] provider[&quot;registry.terraform.io/hashicorp/aws&quot;].us&#45;west&#45;2 (close)</title>
<path fill="none" stroke="black" d="M695.95,-294.97C745.74,-284.25 825.84,-266.99 887.38,-253.74"/>
<polygon fill="black" stroke="black" points="888.43,-257.09 897.47,-251.57 886.96,-250.25 888.43,-257.09"/>
</g>
</g>
</svg>
